<?xml version="1.0" standalone="no"?>
<!DOCTYPE svg PUBLIC "-//W3C//DTD SVG 20010904//EN"
 "http://www.w3.org/TR/2001/REC-SVG-20010904/DTD/svg10.dtd">
<svg version="1.0" xmlns="http://www.w3.org/2000/svg"
 width="500.000000pt" height="500.000000pt" viewBox="0 0 500.000000 500.000000"
 preserveAspectRatio="xMidYMid meet">

<g transform="translate(0.000000,500.000000) scale(0.100000,-0.100000)"
fill="#000000" stroke="none">
<path d="M3753 4369 c-47 -14 -147 -73 -204 -121 -236 -198 -522 -707 -715
-1267 l-42 -125 -144 -77 c-78 -42 -144 -76 -145 -75 -2 1 22 112 51 247 79
354 176 843 176 882 0 62 -31 128 -85 184 -43 45 -57 53 -87 53 -72 0 -74 -5
-134 -329 -65 -350 -125 -640 -201 -966 -31 -132 -58 -250 -61 -262 -2 -14
-37 -46 -89 -84 -469 -341 -768 -699 -843 -1010 -39 -162 -21 -263 60 -352
115 -126 293 -150 475 -64 153 73 275 233 390 512 91 219 168 474 302 999 l28
110 134 73 c74 40 135 72 137 70 2 -2 -15 -65 -36 -141 -99 -342 -134 -550
-134 -796 -1 -240 21 -332 99 -419 150 -165 430 -41 755 335 50 57 90 111 90
119 0 8 -9 19 -19 25 -17 8 -31 -4 -106 -91 -171 -195 -369 -359 -435 -359
-46 0 -84 32 -111 92 -23 50 -24 63 -24 253 1 174 5 220 29 354 33 184 98 447
156 639 l42 139 107 52 c342 165 628 436 780 738 135 271 142 517 16 621 -59
48 -136 63 -212 41z m216 -153 c21 -41 25 -63 24 -130 -5 -310 -268 -700 -635
-941 -65 -43 -248 -145 -261 -145 -21 0 121 358 229 577 116 235 241 421 368
549 111 111 162 145 216 141 31 -2 38 -7 59 -51z m-1889 -2021 c-113 -414
-230 -741 -321 -901 -79 -138 -192 -214 -318 -214 -217 0 -230 295 -26 612
137 212 381 459 644 652 35 25 66 45 68 42 3 -2 -19 -88 -47 -191z"/>
</g>
</svg>
